<svg width="23" height="22" viewBox="0 0 23 22" fill="none" xmlns="http://www.w3.org/2000/svg">
<path d="M22.4041 8.57089C22.4034 8.57039 22.4029 8.56972 22.4024 8.56921L13.4282 -0.404709C13.0456 -0.787399 12.5371 -0.998047 11.9961 -0.998047C11.4551 -0.998047 10.9465 -0.787399 10.5638 -0.404709L1.59429 8.56468C1.59127 8.5677 1.58808 8.57089 1.58523 8.57391C0.799705 9.36397 0.801048 10.6458 1.58909 11.4339C1.94912 11.7941 2.42446 12.0025 2.93287 12.0245C2.95368 12.0265 2.97449 12.0275 2.99548 12.0275H3.35299V18.6316C3.35299 19.9386 4.41647 21.002 5.72349 21.002H9.2345C9.59051 21.002 9.87904 20.7133 9.87904 20.3574V15.1797C9.87904 14.5833 10.3643 14.0983 10.9606 14.0983H13.0315C13.6279 14.0983 14.113 14.5833 14.113 15.1797V20.3574C14.113 20.7133 14.4015 21.002 14.7575 21.002H18.2685C19.5757 21.002 20.639 19.9386 20.639 18.6316V12.0275H20.9707C21.5115 12.0275 22.0201 11.8169 22.4029 11.434C23.1918 10.6448 23.1921 9.36061 22.4041 8.57089ZM21.4913 10.5226C21.3522 10.6618 21.1672 10.7385 20.9707 10.7385H19.9945C19.6385 10.7385 19.35 11.027 19.35 11.383V18.6316C19.35 19.2278 18.8649 19.7129 18.2685 19.7129H15.402V15.1797C15.402 13.8727 14.3387 12.8092 13.0315 12.8092H10.9606C9.65345 12.8092 8.58997 13.8727 8.58997 15.1797V19.7129H5.72349C5.1273 19.7129 4.64205 19.2278 4.64205 18.6316V11.383C4.64205 11.027 4.35352 10.7385 3.99752 10.7385H3.03811C3.02804 10.7378 3.01813 10.7373 3.0079 10.7371C2.81588 10.7338 2.63578 10.6576 2.50083 10.5224C2.21381 10.2354 2.21381 9.76831 2.50083 9.48112C2.501 9.48112 2.501 9.48096 2.50117 9.48079L2.50167 9.48029L11.4756 0.506699C11.6146 0.367554 11.7994 0.291016 11.9961 0.291016C12.1926 0.291016 12.3774 0.367554 12.5166 0.506699L21.4885 9.47844C21.4898 9.47978 21.4913 9.48112 21.4927 9.48247C21.7782 9.76999 21.7777 10.2361 21.4913 10.5226Z" fill="white"/>
</svg>
