<svg width="29" height="22" viewBox="0 0 29 22" fill="none" xmlns="http://www.w3.org/2000/svg">
<path d="M0 3.66864V18.3314C0 20.3518 1.64823 22 3.66864 22H15.5193C17.5397 22 19.188 20.3518 19.188 18.3314V15.9565C19.188 15.5548 18.8631 15.2299 18.4613 15.2299C18.0596 15.2299 17.7347 15.5548 17.7347 15.9565V18.3314C17.7347 19.5542 16.7363 20.5526 15.5134 20.5526H3.66864C2.44576 20.5526 1.44737 19.5542 1.44737 18.3314V3.66864C1.44737 2.44576 2.44576 1.44737 3.66864 1.44737H15.5193C16.7422 1.44737 17.7406 2.44576 17.7406 3.66864V6.0435C17.7406 6.44522 18.0655 6.77014 18.4672 6.77014C18.869 6.77014 19.1939 6.44522 19.1939 6.0435V3.66864C19.1939 1.64823 17.5457 0 15.5252 0H3.66864C1.64823 0 0 1.64232 0 3.66864Z" fill="white"/>
<path d="M22.7681 16.4651C22.9098 16.6069 23.093 16.6778 23.282 16.6778C23.4711 16.6778 23.6542 16.6069 23.796 16.4651L28.7525 11.5086C29.0361 11.225 29.0361 10.7701 28.7525 10.4866L23.796 5.53006C23.5124 5.24649 23.0575 5.24649 22.774 5.53006C22.4904 5.81362 22.4904 6.26851 22.774 6.55208L26.4958 10.2739H12.9141C12.5124 10.2739 12.1875 10.5988 12.1875 11.0005C12.1875 11.4022 12.5124 11.7272 12.9141 11.7272H26.4899L22.7681 15.449C22.4845 15.7266 22.4845 16.1874 22.7681 16.4651Z" fill="white"/>
</svg>
