<svg width="22" height="22" viewBox="0 0 22 22" fill="none" xmlns="http://www.w3.org/2000/svg">
<g clip-path="url(#clip0)">
<path d="M21.2187 3.03484C20.746 2.99174 20.3279 3.34 20.2848 3.81266L20.171 5.06172C18.2391 2.02787 14.8857 0 11.0001 0C6.82001 0 3.13626 2.38571 1.3076 5.96638C1.09172 6.38907 1.25939 6.90671 1.68207 7.12259C2.10484 7.33846 2.6224 7.17084 2.83827 6.74811C4.38588 3.71778 7.49368 1.71875 11.0001 1.71875C14.1959 1.71875 17.0801 3.38297 18.7324 5.99019L17.5071 5.11504C17.1208 4.83923 16.5841 4.92869 16.3083 5.31489C16.0325 5.70114 16.1219 6.23782 16.5081 6.51368L20.2239 9.16747C20.7684 9.55569 21.5196 9.2003 21.5791 8.54618L21.9964 3.96872C22.0395 3.49602 21.6913 3.07794 21.2187 3.03484Z" fill="black"/>
<path d="M20.3182 14.8778C19.8955 14.6619 19.3779 14.8295 19.162 15.2522C17.6144 18.2826 14.5066 20.2816 11.0002 20.2816C7.80431 20.2816 4.92016 18.6174 3.26784 16.0102L4.49318 16.8853C4.87943 17.1611 5.41611 17.0717 5.69197 16.6854C5.96778 16.2992 5.87832 15.7625 5.49212 15.4867L1.7764 12.8329C1.23847 12.4486 0.481275 12.7933 0.421119 13.4542L0.00384955 18.0316C-0.0392481 18.5043 0.309014 18.9224 0.781627 18.9655C1.25488 19.0085 1.67241 18.6599 1.71547 18.1876L1.82933 16.9386C3.76112 19.9725 7.11458 22.0003 11.0002 22.0003C15.1802 22.0003 18.864 19.6146 20.6927 16.034C20.9085 15.6113 20.7409 15.0936 20.3182 14.8778Z" fill="black"/>
</g>
<defs>
<clipPath id="clip0">
<rect width="22" height="22" fill="white"/>
</clipPath>
</defs>
</svg>
