<svg width="31" height="22" viewBox="0 0 31 22" fill="none" xmlns="http://www.w3.org/2000/svg">
<path d="M30.0314 6.29627L15.6836 0.0788684C15.4409 -0.0262895 15.1656 -0.0262895 14.9229 0.0788684L0.575058 6.29627C-0.191596 6.62848 -0.191775 7.71934 0.575058 8.05155L5.73801 10.2888V16.2609C5.73801 19.4791 9.93954 22 15.3033 22C20.667 22 24.8685 19.4791 24.8685 16.2609V10.2888L25.825 9.87433V20.087C25.825 20.6152 26.2533 21.0435 26.7815 21.0435C27.3098 21.0435 27.7381 20.6152 27.7381 20.087V9.04538L30.0314 8.05161C30.7981 7.7194 30.7982 6.62854 30.0314 6.29627V6.29627ZM15.3033 1.99897L27.2454 7.17394L26.2983 7.58435L15.4219 6.22477C14.8976 6.15967 14.4196 6.5311 14.3541 7.05527C14.2886 7.57945 14.6604 8.05753 15.1846 8.12305L22.8453 9.08065L15.3033 12.3489C8.55635 9.42518 9.99335 10.0479 3.36111 7.17388L15.3033 1.99897ZM22.9554 16.2609C22.9554 17.1621 22.2157 18.09 20.926 18.8065C17.8543 20.513 12.7612 20.518 9.6805 18.8065C8.39075 18.09 7.65106 17.1621 7.65106 16.2609V11.1179L14.9229 14.269C15.1652 14.374 15.4405 14.3744 15.6836 14.269L22.9554 11.1179V16.2609Z" fill="white"/>
</svg>
